# xmcd
#
# Track frame offsets:
#	150
#	13117
#	26187
#	38372
#	50865
#	63553
#	76072
#	89479
#	103326
#	116944
#	130854
#	143947
#	158041
#	172186
#	186065
#	199606
#	213869
#	226489
#	239157
#	253727
#	267217
#	279056
#	292522
#	306907
#	320257
#
# Disc length: 4440 seconds
#
# Revision: 1
# Processed by: cddbd v1.5.2PL0 Copyright (c) Steve Scherf et al.
# Submitted via: EZCDAudioConverter 2.4.0.1
#
DISCID=6b115619
DTITLE=Leroy Carr and Scrapper Blackwell and Josh White - When the Sun Goes Down: 
DTITLE=1934
DYEAR=1997
DGENRE=Gospel
TTITLE0=Leroy Carr, Scrapper Blackwell - Southbound Blues
TTITLE1=Leroy Carr, Scrapper Blackwell - Barrel House Woman
TTITLE2=Leroy Carr, Scrapper Blackwell - Barrel House Woman No. 2
TTITLE3=Leroy Carr, Scrapper Blackwell - Florida Bound Blues
TTITLE4=Leroy Carr, Scrapper Blackwell - Cruel Woman Blues
TTITLE5=Leroy Carr, Scrapper Blackwell - Muddy Water
TTITLE6=Leroy Carr, Scrapper Blackwell - I Believe I'll Make A Change
TTITLE7=Leroy Carr, Scrapper Blackwell - Black Gal (What Makes Your Head So He
TTITLE7=ard)
TTITLE8=Leroy Carr, Scrapper Blackwell - Don't Start No Stuff
TTITLE9=Leroy Carr, Scrapper Blackwell - George Street Blues
TTITLE10=Leroy Carr, Scrapper Blackwell - Bo Bo Stomp
TTITLE11=Leroy Carr, Scrapper Blackwell, Josh White - Big Four Blues
TTITLE12=Leroy Carr, Scrapper Blackwell - Heard Headed Papa
TTITLE13=Leroy Carr, Scrapper Blackwell - Heard Headed Papa (alt.)
TTITLE14=Leroy Carr, Scrapper Blackwell - You Left Me Crying
TTITLE15=Leroy Carr, Scrapper Blackwell - You Left Me Crying (alt.)
TTITLE16=Leroy Carr, Scrapper Blackwell, Josh White - Broken Hearted Man
TTITLE17=Leroy Carr, Scrapper Blackwell - Evil Hearted Woman
TTITLE18=Leroy Carr, Scrapper Blackwell, Josh White - Evil Hearted Woman (alt.
TTITLE18=)
TTITLE19=Leroy Carr, Scrapper Blackwell, Josh White - Good Woman Blues
TTITLE20=Leroy Carr, Scrapper Blackwell, Josh White - Hustler's Blues
TTITLE21=Leroy Carr, Scrapper Blackwell, Josh White - Eleven Tenty-Nine Blues
TTITLE22=Leroy Carr, Scrapper Blackwell, Josh White - You've Got Me Grieving
TTITLE23=Leroy Carr, Scrapper Blackwell, Josh White - Lonesome Man Blues
TTITLE24=Leroy Carr, Scrapper Blackwell, Josh White - Lonesome Man Blues (alt.
TTITLE24=)
EXTD=
EXTT0=
EXTT1=
EXTT2=
EXTT3=
EXTT4=
EXTT5=
EXTT6=
EXTT7=
EXTT8=
EXTT9=
EXTT10=
EXTT11=
EXTT12=
EXTT13=
EXTT14=
EXTT15=
EXTT16=
EXTT17=
EXTT18=
EXTT19=
EXTT20=
EXTT21=
EXTT22=
EXTT23=
EXTT24=
PLAYORDER=
